# xmcd
#
# Track frame offsets:
#	150
#	13318
#	26488
#	37785
#	51550
#	61520
#	74138
#	87773
#	101680
#	114330
#	130830
#	139635
#	149638
#	163638
#	173705
#	185590
#	197925
#	210958
#	221440
#	233813
#	245223
#	260833
#	273288
#
# Disc length: 3787
#
# Revision: 3
# Processed by: cddbd v1.5.1PL0 Copyright (c) Steve Scherf et al.
# Submitted via: NotifyCDPlayer(CDDB) 1.51.3
# Normalized: r1:TDELIM( - ),TSWAP
#
DISCID=590ec917
DTITLE=Various Artist - The best blues
DYEAR=1900
DGENRE=
TTITLE0=Muddy waters - Mannish boy
TTITLE1=Howlin' wolf - Howlin' for my baby
TTITLE2=Lee dorsey - Holy cow
TTITLE3=Elmore james - It hurts me so
TTITLE4=John lee hooker - Dimples
TTITLE5=Jimmy reed - Shame, shame, shame
TTITLE6=James cotton - Cotton crop blues
TTITLE7=Walther horton - West winds are blowing
TTITLE8=Lee dorsey - Working in a coalmine
TTITLE9=Albert king - Get out of my life woman
TTITLE10=Eddie taylor - I'm gonna love you
TTITLE11=Billy boy arnold - I ain't got you
TTITLE12=Memphis slim - Messin' arround
TTITLE13=Otis rush - I can't stop
TTITLE14=Buddy guy - Ten years ago
TTITLE15=Jimmy rogers - Chicago bound
TTITLE16=Elmore james - Dust my broom
TTITLE17=Billy boy arnold - I wish you would
TTITLE18=George 'wild child' butler - Open me up baby
TTITLE19=Frank frost - My back scratcher
TTITLE20=Lowell Fulson - Thug
TTITLE21=Jonny winter - Leave my baby alone
TTITLE22=Junior parker - Mystery train
EXTD=
EXTT0=
EXTT1=
EXTT2=
EXTT3=
EXTT4=
EXTT5=
EXTT6=
EXTT7=
EXTT8=
EXTT9=
EXTT10=
EXTT11=
EXTT12=
EXTT13=
EXTT14=
EXTT15=
EXTT16=
EXTT17=
EXTT18=
EXTT19=
EXTT20=
EXTT21=
EXTT22=
PLAYORDER=
